{
  "title": "Terminator.Genisys.2015.NEW.TS.XVID.AC3.HQ.Hive-CM8",
  "uid": 12136752,
  "size": 1762204819,
  "categoryP": "video",
  "categoryS": "movies",
  "magnet": "?xt=urn:btih:37efd5c48fe50e29aec69ab4339ef7fad5628be4&amp;dn=Terminator.Genisys.2015.NEW.TS.XVID.AC3.HQ.Hive-CM8&amp;tr=udp%3A%2F%2Ftracker.openbittorrent.com%3A80&amp;tr=udp%3A%2F%2Fopen.demonii.com%3A1337&amp;tr=udp%3A%2F%2Ftracker.coppersurfer.tk%3A6969&amp;tr=udp%3A%2F%2Fexodus.desync.com%3A6969",
  "seeders": 49,
  "leechers": 10,
  "uploader": "xxxlavalxxx",
  "files": 5,
  "time": 1437213783,
  "description": " &lt;a href=&quot;http://extraimago.com/image/1DS&quot; rel=&quot;nofollow&quot; target=&quot;_NEW&quot;&gt;http://extraimago.com/image/1DS&lt;/a&gt;\n &lt;a href=&quot;\nhttp://www.imdb.com/title/tt1340138/&quot; rel=&quot;nofollow&quot; target=&quot;_NEW&quot;&gt;\nhttp://www.imdb.com/title/tt1340138/&lt;/a&gt;\n\n\nJohn Connor sends Kyle Reese back in time to protect Sarah Connor, but when he arrives in 1984, nothing is as he expected it to be.\n\nDirector: Alan Taylor\nWriters: Laeta Kalogridis, Patrick Lussier\nStars: Arnold Schwarzenegger, Jason Clarke, Emilia Clarke \nGenres: Action | Adventure | Sci-Fi | Thriller\nCountry: USA\nLanguage: English\n\n\nTerminator.Genisys.2015.NEW.TS.XVID.AC3.HQ.Hive-CM8\n\nNotes:\nhad the pleasure of getting a new cam for Terminator, same quality as tomorrowland on daylight scenes\nits one complete recording, no movements, straight video, very good, the first hour is still darker as the rest of the movie\nbut for a cam it cant be done better than this, first hour was also darker in the cinema, but with higher quality its more than watchable now\n\nEncode:\nVideo had slight flicker and slight noise which is mostly removed.\nadded brightness,contrast,fixed colours without going over, no additional sharpening.\n\nhad already the great line audio which i lipsynced to my video.\nno custom intro on this one\n\nwill do me till retail\nenjoy\n\nVideo:720x384 @bitrate 1700 2pass\nAudio: English Line Stereo 2.0\nSample: yes included\n\n\n\n\n\nGeneral\nComplete name                  : Terminator.Genisys.2015.NEW.TS.XVID.AC3.HQ.Hive-CM8.avi\nFormat                         : AVI\nFormat/Info                    : Audio Video Interleave\nFile size                      : 1.62 GiB\nDuration                       : 1h 57mn\nOverall bit rate               : 1 967 Kbps\nWriting application            : Nandub v1.0rc2\nWriting library                : Nandub build 1853/release\n\nVideo\nID                             : 0\nFormat                         : MPEG-4 Visual\nFormat profile                 : Advanced Simple@L5\nFormat settings, BVOP          : 2\nFormat settings, QPel          : Yes\nFormat settings, GMC           : No warppoints\nFormat settings, Matrix        : Default (H.263)\nMuxing mode                    : Packed bitstream\nCodec ID                       : XVID\nCodec ID/Hint                  : XviD\nDuration                       : 1h 57mn\nBit rate                       : 1 700 Kbps\nWidth                          : 720 pixels\nHeight                         : 384 pixels\nDisplay aspect ratio           : 1.85:1\nFrame rate                     : 30.000 fps\nColor space                    : YUV\nChroma subsampling             : 4:2:0\nBit depth                      : 8 bits\nScan type                      : Progressive\nCompression mode               : Lossy\nBits/(Pixel*Frame)             : 0.205\nStream size                    : 1.40 GiB (86%)\nWriting library                : XviD 1.2.1 (UTC 2008-12-04)\n\nAudio\nID                             : 1\nFormat                         : AC-3\nFormat/Info                    : Audio Coding 3\nMode extension                 : CM (complete main)\nFormat settings, Endianness    : Big\nCodec ID                       : 2000\nDuration                       : 1h 57mn\nBit rate mode                  : Constant\nBit rate                       : 256 Kbps\nChannel(s)                     : 2 channels\nChannel positions              : Front: L R\nSampling rate                  : 48.0 KHz\nBit depth                      : 16 bits\nCompression mode               : Lossy\nDelay relative to video        : 14ms\nStream size                    : 216 MiB (13%)\nAlignment                      : Split accross interleaves\nInterleave, duration           : 33 ms (1.00 video frame)\nInterleave, preload duration   : 500 ms\n\n &lt;a href=&quot;\nhttp://extraimago.com/image/1Dd&quot; rel=&quot;nofollow&quot; target=&quot;_NEW&quot;&gt;\nhttp://extraimago.com/image/1Dd&lt;/a&gt; &lt;a href=&quot;\nhttp://extraimago.com/image/1Dh&quot; rel=&quot;nofollow&quot; target=&quot;_NEW&quot;&gt;\nhttp://extraimago.com/image/1Dh&lt;/a&gt; &lt;a href=&quot;\nhttp://extraimago.com/image/1Db&quot; rel=&quot;nofollow&quot; target=&quot;_NEW&quot;&gt;\nhttp://extraimago.com/image/1Db&lt;/a&gt; &lt;a href=&quot;\nhttp://extraimago.com/image/1D3&quot; rel=&quot;nofollow&quot; target=&quot;_NEW&quot;&gt;\nhttp://extraimago.com/image/1D3&lt;/a&gt; &lt;a href=&quot;\nhttp://extraimago.com/image/1D9&quot; rel=&quot;nofollow&quot; target=&quot;_NEW&quot;&gt;\nhttp://extraimago.com/image/1D9&lt;/a&gt; &lt;a href=&quot;\nhttp://extraimago.com/image/1DM&quot; rel=&quot;nofollow&quot; target=&quot;_NEW&quot;&gt;\nhttp://extraimago.com/image/1DM&lt;/a&gt; &lt;a href=&quot;\nhttp://extraimago.com/image/1DU&quot; rel=&quot;nofollow&quot; target=&quot;_NEW&quot;&gt;\nhttp://extraimago.com/image/1DU&lt;/a&gt; &lt;a href=&quot;\nhttp://extraimago.com/image/1Dz&quot; rel=&quot;nofollow&quot; target=&quot;_NEW&quot;&gt;\nhttp://extraimago.com/image/1Dz&lt;/a&gt;",
  "parsed": {
    "xt": "urn:btih:37efd5c48fe50e29aec69ab4339ef7fad5628be4",
    "dn": "Terminator.Genisys.2015.NEW.TS.XVID.AC3.HQ.Hive-CM8",
    "tr": [
      "udp://exodus.desync.com:6969",
      "udp://open.demonii.com:1337",
      "udp://tracker.coppersurfer.tk:6969",
      "udp://tracker.openbittorrent.com:80"
    ],
    "infoHash": "37efd5c48fe50e29aec69ab4339ef7fad5628be4",
    "infoHashBuffer": {
      "type": "Buffer",
      "data": [
        55,
        239,
        213,
        196,
        143,
        229,
        14,
        41,
        174,
        198,
        154,
        180,
        51,
        158,
        247,
        250,
        213,
        98,
        139,
        228
      ]
    },
    "name": "Terminator.Genisys.2015.NEW.TS.XVID.AC3.HQ.Hive-CM8",
    "announce": [
      "udp://exodus.desync.com:6969",
      "udp://open.demonii.com:1337",
      "udp://tracker.coppersurfer.tk:6969",
      "udp://tracker.openbittorrent.com:80"
    ],
    "urlList": []
  },
  "previous": 2,
  "peers": 8,
  "last_updated": "2016-12-26T21:24:16.058Z"
}